<?xml version="1.0" encoding="UTF-8" standalone="no"?>
<!-- Created with Inkscape (http://www.inkscape.org/) -->

<svg
   version="1.1"
   id="svg2"
   width="520.4267"
   height="558.98669"
   viewBox="0 0 520.4267 558.98669"
   sodipodi:docname="RDW-Logo-small-color-vector.eps"
   xmlns:inkscape="http://www.inkscape.org/namespaces/inkscape"
   xmlns:sodipodi="http://sodipodi.sourceforge.net/DTD/sodipodi-0.dtd"
   xmlns="http://www.w3.org/2000/svg"
   xmlns:svg="http://www.w3.org/2000/svg">
  <defs
     id="defs6" />
  <sodipodi:namedview
     id="namedview4"
     pagecolor="#ffffff"
     bordercolor="#000000"
     borderopacity="0.25"
     inkscape:showpageshadow="2"
     inkscape:pageopacity="0.0"
     inkscape:pagecheckerboard="0"
     inkscape:deskcolor="#d1d1d1" />
  <g
     id="g8"
     inkscape:groupmode="layer"
     inkscape:label="ink_ext_XXXXXX"
     transform="matrix(1.3333333,0,0,-1.3333333,0,558.98667)">
    <g
       id="g10"
       transform="scale(0.1)">
      <path
         d="m 2170.72,1315.57 h 45.66 c 26.13,0 39.21,28.47 39.21,85.4 0,36.87 -2.88,61.04 -8.6,72.51 -5.73,11.45 -16.47,17.19 -32.23,17.19 h -44.04 z M 1978.44,720.449 v 945.311 h 290.04 c 48.34,0 84.86,-11 109.57,-33.02 24.7,-22.02 41.27,-52.83 49.68,-92.39 8.41,-39.57 12.62,-86.03 12.62,-139.38 0,-51.56 -6.53,-92.74 -19.61,-123.54 -13.07,-30.8 -37.68,-52.1 -73.85,-63.91 29.72,-6.1 50.58,-20.86 62.58,-44.31 11.99,-23.46 17.99,-53.81 17.99,-91.04 V 720.449 h -186.38 v 370.071 c 0,27.57 -5.63,44.67 -16.92,51.3 -11.27,6.62 -29.45,9.93 -54.51,9.93 V 720.449 h -191.21"
         style="fill:#000000;fill-opacity:1;fill-rule:nonzero;stroke:none"
         id="path12" />
      <path
         d="m 2692.79,887.488 h 32.77 c 34.72,0 52.1,16.832 52.1,50.492 v 487.7 c 0,31.5 -4.21,51.83 -12.62,60.96 -8.42,9.13 -25.52,13.69 -51.3,13.69 h -20.95 z M 2502.66,720.449 v 945.311 h 259.96 c 68.02,0 119.23,-18.88 153.61,-56.66 34.37,-37.78 51.56,-93.01 51.56,-165.7 v -442.58 c 0,-89.519 -15.66,-158.629 -46.99,-207.32 -31.34,-48.699 -86.21,-73.051 -164.63,-73.051 h -253.51"
         style="fill:#000000;fill-opacity:1;fill-rule:nonzero;stroke:none"
         id="path14" />
      <path
         d="m 3119.26,720.449 -101.52,945.311 h 184.77 l 52.1,-596.72 53.17,596.72 h 176.17 l 50.49,-596.72 50.49,596.72 h 186.91 L 3668.72,720.449 h -226.66 l -47.27,454.931 -45.11,-454.931 h -230.42"
         style="fill:#000000;fill-opacity:1;fill-rule:nonzero;stroke:none"
         id="path16" />
      <path
         d="m 1685.31,1245.43 c 0,0 44.44,293.33 40,417.77 -4.45,124.45 -75.56,275.56 -97.78,328.89 -22.22,53.34 -75.56,248.89 -128.89,315.56 -53.33,66.66 -208.89,222.22 -368.89,288.89 0,67.66 5.73,117.59 14.45,154.65 7.23,-5.31 15.32,-12.41 24.44,-21.32 50,-48.89 31.73,-133.33 371.98,-133.33 340.24,0 466,111.11 543.12,0 77.12,-111.11 -78.34,-191.11 -78.34,-191.11 0,0 222.13,-17.78 213.24,115.55 -8.89,133.33 22.22,57.78 35.56,128.89 13.33,71.11 -62.23,126.67 -62.23,126.67 0,0 151.12,73.33 213.34,0 62.22,-73.34 -8.89,-242.23 97.78,-286.67 106.66,-44.44 413.33,-84.44 573.33,84.44 160,168.89 115.55,328.89 115.55,328.89 0,0 13.34,66.67 293.34,66.67 280,0 377.78,-66.67 377.78,-66.67 0,0 -160,226.67 -426.67,226.67 -266.67,0 -431.11,-35.56 -564.45,-226.67 -97.77,0 -160,13.34 -231.11,88.89 -71.11,75.56 -115.55,115.56 -182.22,120 351.11,17.78 569.33,311.11 569.33,311.11 0,0 -427.11,-186.66 -729.33,-71.11 -302.22,115.56 -320,226.67 -320,337.78 0,111.11 57.78,342.22 -40,400 -97.78,57.78 -361.28,146.67 -800.64,48.89 -439.359,-97.78 -934.965,-453.33 -942.715,-808.89 -6.199,-284.24 216.981,-397.97 306.817,-432.19 v -43.37 c 0,0 103.765,31.12 103.765,-257.77 -160,-66.67 -315.554,-222.23 -368.887,-288.89 -53.335,-66.67 -106.667,-262.22 -128.89,-315.56 -22.2228,-53.33 -93.3322,-204.44 -97.7775,-328.89 -4.44531,-124.44 40,-417.77 40,-417.77 l 94.2855,-67.23 -5.926,-619.259 c 0,0 572.629,-331.851 729.277,-542.2222 C 1018.67,218.199 1605.34,579.68 1605.34,579.68 l -11.85,601.49 91.82,64.26"
         style="fill:#000000;fill-opacity:1;fill-rule:nonzero;stroke:none"
         id="path18" />
      <path
         d="m 1685.31,1245.43 c 0,0 44.44,293.33 40,417.77 -4.45,124.45 -75.56,275.56 -97.78,328.89 -22.22,53.34 -75.56,248.89 -128.89,315.56 -53.33,66.66 -208.89,222.22 -368.89,288.89 0,67.66 5.73,117.59 14.45,154.65 7.23,-5.31 15.32,-12.41 24.44,-21.32 50,-48.89 31.73,-133.33 371.98,-133.33 340.24,0 466,111.11 543.12,0 77.12,-111.11 -78.34,-191.11 -78.34,-191.11 0,0 222.13,-17.78 213.24,115.55 -8.89,133.33 22.22,57.78 35.56,128.89 13.33,71.11 -62.23,126.67 -62.23,126.67 0,0 151.12,73.33 213.34,0 62.22,-73.34 -8.89,-242.23 97.78,-286.67 106.66,-44.44 413.33,-84.44 573.33,84.44 160,168.89 115.55,328.89 115.55,328.89 0,0 13.34,66.67 293.34,66.67 280,0 377.78,-66.67 377.78,-66.67 0,0 -160,226.67 -426.67,226.67 -266.67,0 -431.11,-35.56 -564.45,-226.67 -97.77,0 -160,13.34 -231.11,88.89 -71.11,75.56 -115.55,115.56 -182.22,120 351.11,17.78 569.33,311.11 569.33,311.11 0,0 -427.11,-186.66 -729.33,-71.11 -302.22,115.56 -320,226.67 -320,337.78 0,111.11 57.78,342.22 -40,400 -97.78,57.78 -361.28,146.67 -800.64,48.89 -439.359,-97.78 -934.965,-453.33 -942.715,-808.89 -6.199,-284.24 216.981,-397.97 306.817,-432.19 v -43.37 c 0,0 103.765,31.12 103.765,-257.77 -160,-66.67 -315.554,-222.23 -368.887,-288.89 -53.335,-66.67 -106.667,-262.22 -128.89,-315.56 -22.2228,-53.33 -93.3322,-204.44 -97.7775,-328.89 -4.44531,-124.44 40,-417.77 40,-417.77 l 94.2855,-67.23 -5.926,-619.259 c 0,0 572.629,-331.851 729.277,-542.2222 C 1018.67,218.199 1605.34,579.68 1605.34,579.68 l -11.85,601.49 z"
         style="fill:none;stroke:#000000;stroke-width:20;stroke-linecap:butt;stroke-linejoin:miter;stroke-miterlimit:10;stroke-dasharray:none;stroke-opacity:1"
         id="path20" />
      <path
         d="m 197.258,1146.16 c 0,0 215.015,-111.11 267.508,-284.449 52.492,-173.332 34.714,-462.223 34.714,-462.223 0,0 -235.554,164.453 -302.222,200 -4.442,93.34 0,546.672 0,546.672"
         style="fill:#798b85;fill-opacity:1;fill-rule:nonzero;stroke:none"
         id="path22" />
      <path
         d="m 197.258,1146.16 c 0,0 215.015,-111.11 267.508,-284.449 52.492,-173.332 34.714,-462.223 34.714,-462.223 0,0 -235.554,164.453 -302.222,200 -4.442,93.34 0,546.672 0,546.672 z"
         style="fill:none;stroke:#000000;stroke-width:20;stroke-linecap:butt;stroke-linejoin:miter;stroke-miterlimit:10;stroke-dasharray:none;stroke-opacity:1"
         id="path24" />
      <path
         d="m 428.375,1753.24 328.875,-328.87 -484.434,145.5 c 0,0 -44.445,231.11 -77.531,328.89 46.988,5.06 199.106,30.84 260.043,67.78 l -30.086,-30.08 c -52.984,-52.98 -49.851,-130.23 3.133,-183.22"
         style="fill:#eaeaea;fill-opacity:1;fill-rule:nonzero;stroke:none"
         id="path26" />
      <path
         d="m 428.375,1753.24 328.875,-328.87 -484.434,145.5 c 0,0 -44.445,231.11 -77.531,328.89 46.988,5.06 199.106,30.84 260.043,67.78 l -30.086,-30.08 c -52.984,-52.98 -49.851,-130.23 3.133,-183.22 z"
         style="fill:none;stroke:#000000;stroke-width:20;stroke-linecap:butt;stroke-linejoin:miter;stroke-miterlimit:10;stroke-dasharray:none;stroke-opacity:1"
         id="path28" />
      <path
         d="m 489.031,1786.85 c -32.351,32.35 -32.351,84.8 0,117.16 l 320.34,320.34 c 32.352,32.35 84.805,32.35 117.156,0 l 320.343,-320.34 c 32.35,-32.36 32.35,-84.81 0,-117.16 L 926.527,1466.51 c -32.351,-32.35 -84.804,-32.35 -117.156,0 l -320.34,320.34"
         style="fill:#eaeaea;fill-opacity:1;fill-rule:nonzero;stroke:none"
         id="path30" />
      <path
         d="m 489.031,1786.85 c -32.351,32.35 -32.351,84.8 0,117.16 l 320.34,320.34 c 32.352,32.35 84.805,32.35 117.156,0 l 320.343,-320.34 c 32.35,-32.36 32.35,-84.81 0,-117.16 L 926.527,1466.51 c -32.351,-32.35 -84.804,-32.35 -117.156,0 z"
         style="fill:none;stroke:#000000;stroke-width:20;stroke-linecap:butt;stroke-linejoin:miter;stroke-miterlimit:10;stroke-dasharray:none;stroke-opacity:1"
         id="path32" />
      <path
         d="m 1310.22,1941.44 -25.11,25.1 c 60.86,-36.85 208.7,-62.74 255.51,-67.78 -33.09,-97.78 -77.53,-328.89 -77.53,-328.89 l -485.668,-145.21 328.718,328.72 c 52.98,52.98 57.07,135.07 4.08,188.06"
         style="fill:#ffffff;fill-opacity:1;fill-rule:nonzero;stroke:none"
         id="path34" />
      <path
         d="m 1310.22,1941.44 -25.11,25.1 c 60.86,-36.85 208.7,-62.74 255.51,-67.78 -33.09,-97.78 -77.53,-328.89 -77.53,-328.89 l -485.668,-145.21 328.718,328.72 c 52.98,52.98 57.07,135.07 4.08,188.06 z"
         style="fill:none;stroke:#000000;stroke-width:20;stroke-linecap:butt;stroke-linejoin:miter;stroke-miterlimit:10;stroke-dasharray:none;stroke-opacity:1"
         id="path36" />
      <path
         d="m 1271.13,858.762 c 52.5,173.328 267.51,284.438 267.51,284.438 0,0 4.45,-453.329 0,-546.661 -66.67,-35.559 -302.22,-200 -302.22,-200 0,0 -17.78,288.891 34.71,462.223"
         style="fill:#798b85;fill-opacity:1;fill-rule:nonzero;stroke:none"
         id="path38" />
      <path
         d="m 1271.13,858.762 c 52.5,173.328 267.51,284.438 267.51,284.438 0,0 4.45,-453.329 0,-546.661 -66.67,-35.559 -302.22,-200 -302.22,-200 0,0 -17.78,288.891 34.71,462.223 z"
         style="fill:none;stroke:#000000;stroke-width:20;stroke-linecap:butt;stroke-linejoin:miter;stroke-miterlimit:10;stroke-dasharray:none;stroke-opacity:1"
         id="path40" />
      <path
         d="m 1618.64,1254.31 c -191.11,-97.77 -293.33,-204.44 -377.78,-328.88 -84.44,-124.45 -72.22,-582.231 -72.22,-582.231 0,0 -83.33,-44.437 -141.11,-93.328 C 969.754,200.98 889.754,116.539 889.754,116.539 v 960.001 l 31.109,80 653.337,293.33 -71.11,106.67 88.88,324.44 c 75.56,-155.55 75.56,-382.22 26.67,-626.67"
         style="fill:#ffffff;fill-opacity:1;fill-rule:nonzero;stroke:none"
         id="path42" />
      <path
         d="m 1618.64,1254.31 c -191.11,-97.77 -293.33,-204.44 -377.78,-328.88 -84.44,-124.45 -72.22,-582.231 -72.22,-582.231 0,0 -83.33,-44.437 -141.11,-93.328 C 969.754,200.98 889.754,116.539 889.754,116.539 v 960.001 l 31.109,80 653.337,293.33 -71.11,106.67 88.88,324.44 c 75.56,-155.55 75.56,-382.22 26.67,-626.67 z"
         style="fill:none;stroke:#000000;stroke-width:20;stroke-linecap:butt;stroke-linejoin:miter;stroke-miterlimit:10;stroke-dasharray:none;stroke-opacity:1"
         id="path44" />
      <path
         d="m 1040.86,2800.98 c -8.89,-66.67 0,-151.11 0,-151.11 0,0 -66.665,17.78 -93.329,40 -26.648,22.21 -8.926,53.29 -79.582,57.77 -70.652,-4.48 -52.929,-35.56 -79.578,-57.77 -26.668,-22.22 -93.336,-40 -93.336,-40 0,0 8.891,84.44 0,151.11 -8.887,66.67 -88.887,102.22 -88.887,102.22 h 261.661 0.281 261.66 c 0,0 -80,-35.55 -88.89,-102.22"
         style="fill:#446f74;fill-opacity:1;fill-rule:nonzero;stroke:none"
         id="path46" />
      <path
         d="m 1040.86,2800.98 c -8.89,-66.67 0,-151.11 0,-151.11 0,0 -66.665,17.78 -93.329,40 -26.648,22.21 -8.926,53.29 -79.582,57.77 -70.652,-4.48 -52.929,-35.56 -79.578,-57.77 -26.668,-22.22 -93.336,-40 -93.336,-40 0,0 8.891,84.44 0,151.11 -8.887,66.67 -88.887,102.22 -88.887,102.22 h 261.661 0.281 261.66 c 0,0 -80,-35.55 -88.89,-102.22 z"
         style="fill:none;stroke:#000000;stroke-width:20;stroke-linecap:butt;stroke-linejoin:miter;stroke-miterlimit:10;stroke-dasharray:none;stroke-opacity:1"
         id="path48" />
      <path
         d="m 1165.69,2810.87 c 29.98,54.68 67.83,43.44 67.83,43.44 v 137.78 h -56.71 c 2.38,8.83 8.35,19.16 20.17,31.11 48.33,48.89 221.66,66.67 239.44,40 17.78,-26.66 -120,-146.66 62.22,-333.33 -127.34,-32.86 -221.65,14.05 -332.95,81"
         style="fill:#b7041e;fill-opacity:1;fill-rule:nonzero;stroke:none"
         id="path50" />
      <path
         d="m 1165.69,2810.87 c 29.98,54.68 67.83,43.44 67.83,43.44 v 137.78 h -56.71 c 2.38,8.83 8.35,19.16 20.17,31.11 48.33,48.89 221.66,66.67 239.44,40 17.78,-26.66 -120,-146.66 62.22,-333.33 -127.34,-32.86 -221.65,14.05 -332.95,81 z"
         style="fill:none;stroke:#000000;stroke-width:20;stroke-linecap:butt;stroke-linejoin:miter;stroke-miterlimit:10;stroke-dasharray:none;stroke-opacity:1"
         id="path52" />
      <path
         d="m 2556.42,2947.65 c -66.67,-17.78 -115.56,-4.45 -115.56,-4.45 0,0 111.11,-155.55 466.67,-142.22 75.56,0 -17.78,182.22 240,244.45 257.78,62.22 360,44.44 537.78,-26.67 -266.67,8.89 -408.89,13.33 -520,-26.67 -111.11,-40 -97.78,-48.89 -80,-88.89 17.78,-40 119.54,-208.65 -84.45,-328.89 -203.99,-120.23 -431.11,-102.22 -475.55,-44.44 -44.45,57.78 4.44,328.89 -208.89,320 -213.33,-8.89 -328.89,-111.11 -466.67,-120 -137.78,-8.89 -104.44,75.56 -104.44,75.56 0,0 -131.11,-84.45 -180,-28.89 -48.89,55.55 -106.67,211.11 -57.78,273.33 48.89,62.22 -17.78,75.56 -75.56,75.56 -55.35,0 -229.59,28.41 -327.84,-133.34 H 961.219 c -74.117,57.24 -191.387,176.8 -198.621,364.45 -10.625,275.55 251.602,466.66 831.602,462.22 162.22,-4.45 -33.34,-40 -28.89,-120 4.44,-80 160,-457.78 675.55,-555.56 -128.89,-31.11 -128.89,-97.77 4.45,-97.77 133.33,0 244.44,31.11 311.11,-97.78"
         style="fill:#ff220b;fill-opacity:1;fill-rule:nonzero;stroke:none"
         id="path54" />
      <path
         d="m 2556.42,2947.65 c -66.67,-17.78 -115.56,-4.45 -115.56,-4.45 0,0 111.11,-155.55 466.67,-142.22 75.56,0 -17.78,182.22 240,244.45 257.78,62.22 360,44.44 537.78,-26.67 -266.67,8.89 -408.89,13.33 -520,-26.67 -111.11,-40 -97.78,-48.89 -80,-88.89 17.78,-40 119.54,-208.65 -84.45,-328.89 -203.99,-120.23 -431.11,-102.22 -475.55,-44.44 -44.45,57.78 4.44,328.89 -208.89,320 -213.33,-8.89 -328.89,-111.11 -466.67,-120 -137.78,-8.89 -104.44,75.56 -104.44,75.56 0,0 -131.11,-84.45 -180,-28.89 -48.89,55.55 -106.67,211.11 -57.78,273.33 48.89,62.22 -17.78,75.56 -75.56,75.56 -55.35,0 -229.59,28.41 -327.84,-133.34 H 961.219 c -74.117,57.24 -191.387,176.8 -198.621,364.45 -10.625,275.55 251.602,466.66 831.602,462.22 162.22,-4.45 -33.34,-40 -28.89,-120 4.44,-80 160,-457.78 675.55,-555.56 -128.89,-31.11 -128.89,-97.77 4.45,-97.77 133.33,0 244.44,31.11 311.11,-97.78 z"
         style="fill:none;stroke:#000000;stroke-width:20;stroke-linecap:butt;stroke-linejoin:miter;stroke-miterlimit:10;stroke-dasharray:none;stroke-opacity:1"
         id="path56" />
      <path
         d="m 502.102,2992.09 v -17.99 c -80.551,41.98 -264.372,158.91 -252.348,346.88 15.363,240.23 252.047,591.11 888.246,746.67 636.2,155.55 760.64,-26.67 778.42,-62.22 17.78,-35.56 -22.22,-324.45 31.11,-457.78 53.33,-133.34 315.56,-355.56 813.33,-280 -311.11,-93.34 -644.26,-93.34 -755.46,-4.45 -111.2,88.89 -297.87,253.34 -335.65,368.89 -37.78,115.56 64.45,128.89 28.89,204.45 -35.55,75.55 -540.54,120 -852.492,-182.23 -255.882,-247.9 -92.011,-558.54 -24.828,-662.22 H 502.102"
         style="fill:#b7041e;fill-opacity:1;fill-rule:nonzero;stroke:none"
         id="path58" />
      <path
         d="m 502.102,2992.09 v -17.99 c -80.551,41.98 -264.372,158.91 -252.348,346.88 15.363,240.23 252.047,591.11 888.246,746.67 636.2,155.55 760.64,-26.67 778.42,-62.22 17.78,-35.56 -22.22,-324.45 31.11,-457.78 53.33,-133.34 315.56,-355.56 813.33,-280 -311.11,-93.34 -644.26,-93.34 -755.46,-4.45 -111.2,88.89 -297.87,253.34 -335.65,368.89 -37.78,115.56 64.45,128.89 28.89,204.45 -35.55,75.55 -540.54,120 -852.492,-182.23 -255.882,-247.9 -92.011,-558.54 -24.828,-662.22 z"
         style="fill:none;stroke:#000000;stroke-width:20;stroke-linecap:butt;stroke-linejoin:miter;stroke-miterlimit:10;stroke-dasharray:none;stroke-opacity:1"
         id="path60" />
      <path
         d="m 638.82,2520.98 c 151.114,97.78 163.164,115.56 185.387,137.78 22.223,22.22 43.883,31.11 43.883,31.11 0,0 21.383,-8.89 43.605,-31.11 22.223,-22.22 34.274,-40 185.385,-137.78 151.11,-97.78 370.45,-231.11 468.23,-560 -104.71,18.62 -245.07,8.56 -354.75,77.79 l -246.912,246.92 c -52.984,52.98 -138.886,52.98 -191.867,0 L 525.336,2039.24 c -109.785,-69.35 -249.793,-59.6 -354.742,-78.26 97.777,328.89 317.117,462.22 468.226,560"
         style="fill:#eaeaea;fill-opacity:1;fill-rule:nonzero;stroke:none"
         id="path62" />
      <path
         d="m 638.82,2520.98 c 151.114,97.78 163.164,115.56 185.387,137.78 22.223,22.22 43.883,31.11 43.883,31.11 0,0 21.383,-8.89 43.605,-31.11 22.223,-22.22 34.274,-40 185.385,-137.78 151.11,-97.78 370.45,-231.11 468.23,-560 -104.71,18.62 -245.07,8.56 -354.75,77.79 l -246.912,246.92 c -52.984,52.98 -138.886,52.98 -191.867,0 L 525.336,2039.24 c -109.785,-69.35 -249.793,-59.6 -354.742,-78.26 97.777,328.89 317.117,462.22 468.226,560 z"
         style="fill:none;stroke:#000000;stroke-width:20;stroke-linecap:butt;stroke-linejoin:miter;stroke-miterlimit:10;stroke-dasharray:none;stroke-opacity:1"
         id="path64" />
      <path
         d="m 143.926,1883.94 88.89,-324.45 -71.113,-106.66 653.332,-293.34 31.113,-80 V 119.488 c 0,0 -80,84.453 -137.777,133.34 -57.777,48.883 -141.113,93.332 -141.113,93.332 0,0 12.222,457.781 -72.223,582.219 -84.441,124.451 -186.664,231.111 -377.777,328.891 -48.8869,244.44 -48.8869,471.11 26.668,626.67"
         style="fill:#eaeaea;fill-opacity:1;fill-rule:nonzero;stroke:none"
         id="path66" />
      <path
         d="m 143.926,1883.94 88.89,-324.45 -71.113,-106.66 653.332,-293.34 31.113,-80 V 119.488 c 0,0 -80,84.453 -137.777,133.34 -57.777,48.883 -141.113,93.332 -141.113,93.332 0,0 12.222,457.781 -72.223,582.219 -84.441,124.451 -186.664,231.111 -377.777,328.891 -48.8869,244.44 -48.8869,471.11 26.668,626.67 z"
         style="fill:none;stroke:#000000;stroke-width:20;stroke-linecap:butt;stroke-linejoin:miter;stroke-miterlimit:10;stroke-dasharray:none;stroke-opacity:1"
         id="path68" />
      <path
         d="m 1021.23,494.309 c -23,0 -41.648,-18.637 -41.648,-41.649 0,-23 18.648,-41.648 41.648,-41.648 23.01,0 41.66,18.648 41.66,41.648 0,23.012 -18.65,41.649 -41.66,41.649"
         style="fill:#000000;fill-opacity:1;fill-rule:nonzero;stroke:none"
         id="path70" />
      <path
         d="m 1021.23,494.309 c -23,0 -41.648,-18.637 -41.648,-41.649 0,-23 18.648,-41.648 41.648,-41.648 23.01,0 41.66,18.648 41.66,41.648 0,23.012 -18.65,41.649 -41.66,41.649 z"
         style="fill:none;stroke:#000000;stroke-width:20;stroke-linecap:butt;stroke-linejoin:miter;stroke-miterlimit:10;stroke-dasharray:none;stroke-opacity:1"
         id="path72" />
      <path
         d="m 1021.23,749.301 c -23,0 -41.648,-18.653 -41.648,-41.653 0,-23.007 18.648,-41.648 41.648,-41.648 23.01,0 41.66,18.641 41.66,41.648 0,23 -18.65,41.653 -41.66,41.653"
         style="fill:#000000;fill-opacity:1;fill-rule:nonzero;stroke:none"
         id="path74" />
      <path
         d="m 1021.23,749.301 c -23,0 -41.648,-18.653 -41.648,-41.653 0,-23.007 18.648,-41.648 41.648,-41.648 23.01,0 41.66,18.641 41.66,41.648 0,23 -18.65,41.653 -41.66,41.653 z"
         style="fill:none;stroke:#000000;stroke-width:20;stroke-linecap:butt;stroke-linejoin:miter;stroke-miterlimit:10;stroke-dasharray:none;stroke-opacity:1"
         id="path76" />
      <path
         d="m 1021.23,980.41 c -23,0 -41.648,-18.648 -41.648,-41.648 0,-23 18.648,-41.653 41.648,-41.653 23.01,0 41.66,18.653 41.66,41.653 0,23 -18.65,41.648 -41.66,41.648"
         style="fill:#000000;fill-opacity:1;fill-rule:nonzero;stroke:none"
         id="path78" />
      <path
         d="m 1021.23,980.41 c -23,0 -41.648,-18.648 -41.648,-41.648 0,-23 18.648,-41.653 41.648,-41.653 23.01,0 41.66,18.653 41.66,41.653 0,23 -18.65,41.648 -41.66,41.648 z"
         style="fill:none;stroke:#000000;stroke-width:20;stroke-linecap:butt;stroke-linejoin:miter;stroke-miterlimit:10;stroke-dasharray:none;stroke-opacity:1"
         id="path80" />
      <path
         d="m 699.211,411.012 c 23.004,0 41.652,18.648 41.652,41.648 0,23.012 -18.648,41.649 -41.652,41.649 -23.004,0 -41.652,-18.637 -41.652,-41.649 0,-23 18.648,-41.648 41.652,-41.648"
         style="fill:#000000;fill-opacity:1;fill-rule:nonzero;stroke:none"
         id="path82" />
      <path
         d="m 699.211,411.012 c 23.004,0 41.652,18.648 41.652,41.648 0,23.012 -18.648,41.649 -41.652,41.649 -23.004,0 -41.652,-18.637 -41.652,-41.649 0,-23 18.648,-41.648 41.652,-41.648 z"
         style="fill:none;stroke:#000000;stroke-width:20;stroke-linecap:butt;stroke-linejoin:miter;stroke-miterlimit:10;stroke-dasharray:none;stroke-opacity:1"
         id="path84" />
      <path
         d="m 699.211,666 c 23.004,0 41.652,18.641 41.652,41.648 0,23 -18.648,41.653 -41.652,41.653 -23.004,0 -41.652,-18.653 -41.652,-41.653 0,-23.007 18.648,-41.648 41.652,-41.648"
         style="fill:#000000;fill-opacity:1;fill-rule:nonzero;stroke:none"
         id="path86" />
      <path
         d="m 699.211,666 c 23.004,0 41.652,18.641 41.652,41.648 0,23 -18.648,41.653 -41.652,41.653 -23.004,0 -41.652,-18.653 -41.652,-41.653 0,-23.007 18.648,-41.648 41.652,-41.648 z"
         style="fill:none;stroke:#000000;stroke-width:20;stroke-linecap:butt;stroke-linejoin:miter;stroke-miterlimit:10;stroke-dasharray:none;stroke-opacity:1"
         id="path88" />
      <path
         d="m 699.211,897.109 c 23.004,0 41.652,18.653 41.652,41.653 0,23 -18.648,41.648 -41.652,41.648 -23.004,0 -41.652,-18.648 -41.652,-41.648 0,-23 18.648,-41.653 41.652,-41.653"
         style="fill:#000000;fill-opacity:1;fill-rule:nonzero;stroke:none"
         id="path90" />
      <path
         d="m 699.211,897.109 c 23.004,0 41.652,18.653 41.652,41.653 0,23 -18.648,41.648 -41.652,41.648 -23.004,0 -41.652,-18.648 -41.652,-41.648 0,-23 18.648,-41.653 41.652,-41.653 z"
         style="fill:none;stroke:#000000;stroke-width:20;stroke-linecap:butt;stroke-linejoin:miter;stroke-miterlimit:10;stroke-dasharray:none;stroke-opacity:1"
         id="path92" />
      <path
         d="m 867.949,2035.11 c 32.574,0 58.981,26.41 58.981,58.98 0,32.57 -26.407,58.98 -58.981,58.98 -32.57,0 -58.976,-26.41 -58.976,-58.98 0,-32.57 26.406,-58.98 58.976,-58.98"
         style="fill:#000000;fill-opacity:1;fill-rule:nonzero;stroke:none"
         id="path94" />
      <path
         d="m 867.949,2035.11 c 32.574,0 58.981,26.41 58.981,58.98 0,32.57 -26.407,58.98 -58.981,58.98 -32.57,0 -58.976,-26.41 -58.976,-58.98 0,-32.57 26.406,-58.98 58.976,-58.98 z"
         style="fill:none;stroke:#000000;stroke-width:20;stroke-linecap:butt;stroke-linejoin:miter;stroke-miterlimit:10;stroke-dasharray:none;stroke-opacity:1"
         id="path96" />
      <path
         d="m 867.949,1904.04 c -32.57,0 -58.976,-26.4 -58.976,-58.98 0,-32.57 26.406,-58.97 58.976,-58.97 32.574,0 58.981,26.4 58.981,58.97 0,32.58 -26.407,58.98 -58.981,58.98"
         style="fill:#000000;fill-opacity:1;fill-rule:nonzero;stroke:none"
         id="path98" />
      <path
         d="m 867.949,1904.04 c -32.57,0 -58.976,-26.4 -58.976,-58.98 0,-32.57 26.406,-58.97 58.976,-58.97 32.574,0 58.981,26.4 58.981,58.97 0,32.58 -26.407,58.98 -58.981,58.98 z"
         style="fill:none;stroke:#000000;stroke-width:20;stroke-linecap:butt;stroke-linejoin:miter;stroke-miterlimit:10;stroke-dasharray:none;stroke-opacity:1"
         id="path100" />
      <path
         d="m 608.922,1904.04 c -32.57,0 -58.977,-26.4 -58.977,-58.98 0,-32.57 26.407,-58.97 58.977,-58.97 32.574,0 58.98,26.4 58.98,58.97 0,32.58 -26.406,58.98 -58.98,58.98"
         style="fill:#000000;fill-opacity:1;fill-rule:nonzero;stroke:none"
         id="path102" />
      <path
         d="m 608.922,1904.04 c -32.57,0 -58.977,-26.4 -58.977,-58.98 0,-32.57 26.407,-58.97 58.977,-58.97 32.574,0 58.98,26.4 58.98,58.97 0,32.58 -26.406,58.98 -58.98,58.98 z"
         style="fill:none;stroke:#000000;stroke-width:20;stroke-linecap:butt;stroke-linejoin:miter;stroke-miterlimit:10;stroke-dasharray:none;stroke-opacity:1"
         id="path104" />
      <path
         d="m 1108,1791.37 c 32.57,0 58.98,26.4 58.98,58.98 0,32.57 -26.41,58.98 -58.98,58.98 -32.57,0 -58.98,-26.41 -58.98,-58.98 0,-32.58 26.41,-58.98 58.98,-58.98"
         style="fill:#000000;fill-opacity:1;fill-rule:nonzero;stroke:none"
         id="path106" />
      <path
         d="m 1108,1791.37 c 32.57,0 58.98,26.4 58.98,58.98 0,32.57 -26.41,58.98 -58.98,58.98 -32.57,0 -58.98,-26.41 -58.98,-58.98 0,-32.58 26.41,-58.98 58.98,-58.98 z"
         style="fill:none;stroke:#000000;stroke-width:20;stroke-linecap:butt;stroke-linejoin:miter;stroke-miterlimit:10;stroke-dasharray:none;stroke-opacity:1"
         id="path108" />
      <path
         d="m 867.949,1546.04 c 32.574,0 58.981,26.4 58.981,58.98 0,32.57 -26.407,58.98 -58.981,58.98 -32.57,0 -58.976,-26.41 -58.976,-58.98 0,-32.58 26.406,-58.98 58.976,-58.98"
         style="fill:#000000;fill-opacity:1;fill-rule:nonzero;stroke:none"
         id="path110" />
      <path
         d="m 867.949,1546.04 c 32.574,0 58.981,26.4 58.981,58.98 0,32.57 -26.407,58.98 -58.981,58.98 -32.57,0 -58.976,-26.41 -58.976,-58.98 0,-32.58 26.406,-58.98 58.976,-58.98 z"
         style="fill:none;stroke:#000000;stroke-width:20;stroke-linecap:butt;stroke-linejoin:miter;stroke-miterlimit:10;stroke-dasharray:none;stroke-opacity:1"
         id="path112" />
    </g>
  </g>
</svg>
