<?xml version="1.0" encoding="UTF-8" standalone="no"?>
<!-- Created with Inkscape (http://www.inkscape.org/) -->

<svg
   version="1.1"
   id="svg2"
   width="673.66669"
   height="555.4267"
   viewBox="0 0 673.66669 555.4267"
   sodipodi:docname="RDW-Logo-grey-vector.eps"
   xmlns:inkscape="http://www.inkscape.org/namespaces/inkscape"
   xmlns:sodipodi="http://sodipodi.sourceforge.net/DTD/sodipodi-0.dtd"
   xmlns="http://www.w3.org/2000/svg"
   xmlns:svg="http://www.w3.org/2000/svg">
  <defs
     id="defs6" />
  <sodipodi:namedview
     id="namedview4"
     pagecolor="#ffffff"
     bordercolor="#000000"
     borderopacity="0.25"
     inkscape:showpageshadow="2"
     inkscape:pageopacity="0.0"
     inkscape:pagecheckerboard="0"
     inkscape:deskcolor="#d1d1d1" />
  <g
     id="g8"
     inkscape:groupmode="layer"
     inkscape:label="ink_ext_XXXXXX"
     transform="matrix(1.3333333,0,0,-1.3333333,0,555.42667)">
    <g
       id="g10"
       transform="scale(0.1)">
      <path
         d="m 1675.31,1228.71 c 0,0 44.44,293.33 40,417.77 -4.45,124.45 -75.56,275.56 -97.78,328.89 -22.22,53.34 -75.56,248.89 -128.89,315.56 -53.33,66.66 -208.89,222.22 -368.89,288.89 0,67.66 5.73,117.59 14.45,154.65 7.23,-5.31 15.32,-12.41 24.44,-21.32 50,-48.89 31.73,-133.33 371.98,-133.33 340.24,0 466,111.11 543.12,0 77.12,-111.11 -78.34,-191.11 -78.34,-191.11 0,0 222.13,-17.78 213.24,115.55 -8.89,133.33 22.22,57.78 35.56,128.89 13.33,71.11 -62.23,126.67 -62.23,126.67 0,0 151.12,73.33 213.34,0 62.22,-73.34 -8.89,-242.23 97.78,-286.67 106.66,-44.44 413.33,-84.44 573.33,84.44 160,168.89 115.55,328.89 115.55,328.89 0,0 13.34,66.67 293.34,66.67 280,0 377.78,-66.67 377.78,-66.67 0,0 -160,226.67 -426.67,226.67 -266.67,0 -431.11,-35.56 -564.45,-226.67 -97.77,0 -160,13.34 -231.11,88.89 -71.11,75.56 -115.55,115.56 -182.22,120 351.11,17.78 569.33,311.11 569.33,311.11 0,0 -427.11,-186.66 -729.33,-71.11 -302.22,115.56 -320,226.67 -320,337.78 0,111.11 57.78,342.22 -40,400 -97.78,57.78 -361.28,146.67 -800.64,48.89 -439.359,-97.78 -934.965,-453.33 -942.715,-808.89 -6.199,-284.24 216.981,-397.97 306.817,-432.19 v -43.37 c 0,0 103.765,31.12 103.765,-257.77 -160,-66.67 -315.554,-222.23 -368.887,-288.89 C 173.645,2224.26 120.313,2028.71 98.0898,1975.37 75.8672,1922.04 4.75781,1770.93 0.3125,1646.48 c -4.44531,-124.44 40,-417.77 40,-417.77 l 94.2855,-67.23 -5.926,-619.261 c 0,0 572.629,-331.848 729.277,-542.219 150.721,201.48 737.391,562.961 737.391,562.961 l -11.85,601.489 91.82,64.26"
         style="fill:#161715;fill-opacity:1;fill-rule:nonzero;stroke:none"
         id="path12" />
      <path
         d="m 187.258,1129.44 c 0,0 215.015,-111.11 267.508,-284.452 C 507.258,671.66 489.48,382.77 489.48,382.77 c 0,0 -235.554,164.449 -302.222,200 -4.442,93.339 0,546.67 0,546.67"
         style="fill:#878787;fill-opacity:1;fill-rule:nonzero;stroke:none"
         id="path14" />
      <path
         d="m 418.375,1736.52 328.875,-328.87 -484.434,145.5 c 0,0 -44.445,231.11 -77.531,328.89 46.988,5.06 199.106,30.84 260.043,67.78 l -30.086,-30.08 c -52.984,-52.98 -49.851,-130.23 3.133,-183.22"
         style="fill:#d8d8d8;fill-opacity:1;fill-rule:nonzero;stroke:none"
         id="path16" />
      <path
         d="m 479.031,1770.13 c -32.351,32.35 -32.351,84.8 0,117.16 l 320.34,320.34 c 32.352,32.35 84.805,32.35 117.156,0 l 320.343,-320.34 c 32.35,-32.36 32.35,-84.81 0,-117.16 L 916.527,1449.79 c -32.351,-32.35 -84.804,-32.35 -117.156,0 l -320.34,320.34"
         style="fill:#f2f2f2;fill-opacity:1;fill-rule:nonzero;stroke:none"
         id="path18" />
      <path
         d="m 1300.22,1924.72 -25.11,25.1 c 60.86,-36.85 208.7,-62.74 255.51,-67.78 -33.09,-97.78 -77.53,-328.89 -77.53,-328.89 l -485.668,-145.21 328.718,328.72 c 52.98,52.98 57.07,135.07 4.08,188.06"
         style="fill:#878787;fill-opacity:1;fill-rule:nonzero;stroke:none"
         id="path20" />
      <path
         d="m 1261.13,842.039 c 52.5,173.331 267.51,284.441 267.51,284.441 0,0 4.45,-453.332 0,-546.66 -66.67,-35.558 -302.22,-200 -302.22,-200 0,0 -17.78,288.891 34.71,462.219"
         style="fill:#686767;fill-opacity:1;fill-rule:nonzero;stroke:none"
         id="path22" />
      <path
         d="m 1608.64,1237.59 c -191.11,-97.77 -293.33,-204.44 -377.78,-328.879 -84.44,-124.449 -72.22,-582.231 -72.22,-582.231 0,0 -83.33,-44.441 -141.11,-93.332 C 959.754,184.262 879.754,99.8203 879.754,99.8203 V 1059.82 l 31.109,80 653.337,293.33 -71.11,106.67 88.88,324.44 c 75.56,-155.55 75.56,-382.22 26.67,-626.67"
         style="fill:#878787;fill-opacity:1;fill-rule:nonzero;stroke:none"
         id="path24" />
      <path
         d="m 1030.86,2784.26 c -8.89,-66.67 0,-151.11 0,-151.11 0,0 -66.665,17.78 -93.329,40 -26.648,22.21 -8.926,53.29 -79.582,57.77 -70.652,-4.48 -52.929,-35.56 -79.578,-57.77 -26.668,-22.22 -93.336,-40 -93.336,-40 0,0 8.891,84.44 0,151.11 -8.887,66.67 -88.887,102.22 -88.887,102.22 h 261.661 0.281 261.66 c 0,0 -80,-35.55 -88.89,-102.22"
         style="fill:#686767;fill-opacity:1;fill-rule:nonzero;stroke:none"
         id="path26" />
      <path
         d="m 1155.69,2794.15 c 29.98,54.68 67.83,43.44 67.83,43.44 v 137.78 h -56.71 c 2.38,8.83 8.35,19.16 20.17,31.11 48.33,48.89 221.66,66.67 239.44,40 17.78,-26.66 -120,-146.66 62.22,-333.33 -127.34,-32.86 -221.65,14.05 -332.95,81"
         style="fill:#929393;fill-opacity:1;fill-rule:nonzero;stroke:none"
         id="path28" />
      <path
         d="m 2546.42,2930.93 c -66.67,-17.78 -115.56,-4.45 -115.56,-4.45 0,0 111.11,-155.55 466.67,-142.22 75.56,0 -17.78,182.22 240,244.45 257.78,62.22 360,44.44 537.78,-26.67 -266.67,8.89 -408.89,13.33 -520,-26.67 -111.11,-40 -97.78,-48.89 -80,-88.89 17.78,-40 119.54,-208.65 -84.45,-328.89 -203.99,-120.23 -431.11,-102.22 -475.55,-44.44 -44.45,57.78 4.44,328.89 -208.89,320 -213.33,-8.89 -328.89,-111.11 -466.67,-120 -137.78,-8.89 -104.44,75.56 -104.44,75.56 0,0 -131.11,-84.45 -180,-28.89 -48.89,55.55 -106.67,211.11 -57.78,273.33 48.89,62.22 -17.78,75.56 -75.56,75.56 -55.35,0 -229.59,28.41 -327.84,-133.34 H 951.219 c -74.117,57.24 -191.387,176.8 -198.621,364.45 -10.625,275.55 251.602,466.66 831.602,462.22 162.22,-4.45 -33.34,-40 -28.89,-120 4.44,-80 160,-457.78 675.55,-555.56 -128.89,-31.11 -128.89,-97.77 4.45,-97.77 133.33,0 244.44,31.11 311.11,-97.78"
         style="fill:#a7a7a8;fill-opacity:1;fill-rule:nonzero;stroke:none"
         id="path30" />
      <path
         d="m 492.102,2975.37 v -17.99 c -80.551,41.98 -264.372,158.91 -252.348,346.88 15.363,240.23 252.047,591.11 888.246,746.67 636.2,155.55 760.64,-26.67 778.42,-62.22 17.78,-35.56 -22.22,-324.45 31.11,-457.78 53.33,-133.34 315.56,-355.56 813.33,-280 -311.11,-93.34 -644.26,-93.34 -755.46,-4.45 -111.2,88.89 -297.87,253.34 -335.65,368.89 -37.78,115.56 64.45,128.89 28.89,204.45 -35.55,75.55 -540.54,120 -852.492,-182.23 C 580.266,3389.7 744.137,3079.05 811.32,2975.37 H 492.102"
         style="fill:#898b8d;fill-opacity:1;fill-rule:nonzero;stroke:none"
         id="path32" />
      <path
         d="m 628.82,2504.26 c 151.114,97.78 163.164,115.56 185.387,137.78 22.223,22.22 43.883,31.11 43.883,31.11 0,0 21.383,-8.89 43.605,-31.11 22.223,-22.22 34.274,-40 185.385,-137.78 151.11,-97.78 370.45,-231.11 468.23,-560 -104.71,18.62 -245.07,8.56 -354.75,77.79 l -246.912,246.92 c -52.984,52.98 -138.886,52.98 -191.867,0 L 515.336,2022.52 c -109.785,-69.35 -249.793,-59.6 -354.742,-78.26 97.777,328.89 317.117,462.22 468.226,560"
         style="fill:#d8d8d8;fill-opacity:1;fill-rule:nonzero;stroke:none"
         id="path34" />
      <path
         d="m 133.926,1867.22 88.89,-324.45 -71.113,-106.66 653.332,-293.34 31.113,-80 v -960 c 0,0 -80,84.449 -137.777,133.339 -57.777,48.879 -141.113,93.332 -141.113,93.332 0,0 12.222,457.778 -72.223,582.219 -84.441,124.45 -186.664,231.11 -377.777,328.89 -48.8869,244.44 -48.8869,471.11 26.668,626.67"
         style="fill:#d8d8d8;fill-opacity:1;fill-rule:nonzero;stroke:none"
         id="path36" />
      <path
         d="m 2089.84,1963.41 h 24.9 c 14.26,0 21.39,15.53 21.39,46.58 0,20.12 -1.57,33.3 -4.69,39.56 -3.13,6.25 -8.99,9.37 -17.58,9.37 h -24.02 z M 1984.95,1638.8 v 515.63 h 158.21 c 26.36,0 46.29,-6.01 59.76,-18.02 13.48,-12.01 22.51,-28.81 27.1,-50.39 4.59,-21.58 6.89,-46.92 6.89,-76.03 0,-28.12 -3.57,-50.58 -10.7,-67.38 -7.12,-16.8 -20.55,-28.42 -40.28,-34.86 16.21,-3.33 27.59,-11.38 34.13,-24.17 6.54,-12.79 9.82,-29.35 9.82,-49.66 V 1638.8 h -101.66 v 201.86 c 0,15.04 -3.08,24.36 -9.23,27.98 -6.15,3.61 -16.07,5.42 -29.74,5.42 V 1638.8 h -104.3"
         style="fill:#161616;fill-opacity:1;fill-rule:nonzero;stroke:none"
         id="path38" />
      <path
         d="m 2266.2,1638.8 v 515.63 h 99.61 V 1638.8 h -99.61"
         style="fill:#161616;fill-opacity:1;fill-rule:nonzero;stroke:none"
         id="path40" />
      <path
         d="m 2451.07,1638.8 v 416.6 h -61.23 v 99.03 h 225.58 v -99.03 h -61.23 v -416.6 h -103.12"
         style="fill:#161616;fill-opacity:1;fill-rule:nonzero;stroke:none"
         id="path42" />
      <path
         d="m 2688.37,1638.8 v 416.6 h -61.23 v 99.03 h 225.59 v -99.03 h -61.23 v -416.6 h -103.13"
         style="fill:#161616;fill-opacity:1;fill-rule:nonzero;stroke:none"
         id="path44" />
      <path
         d="m 2881.44,1638.8 v 515.63 h 206.25 v -99.61 h -101.37 v -100.49 h 97.27 v -96.97 h -97.27 v -118.07 h 108.11 V 1638.8 h -212.99"
         style="fill:#161616;fill-opacity:1;fill-rule:nonzero;stroke:none"
         id="path46" />
      <path
         d="m 3233.29,1963.41 h 24.91 c 14.25,0 21.38,15.53 21.38,46.58 0,20.12 -1.56,33.3 -4.68,39.56 -3.13,6.25 -8.99,9.37 -17.58,9.37 h -24.03 z M 3128.41,1638.8 v 515.63 h 158.2 c 26.37,0 46.29,-6.01 59.77,-18.02 13.48,-12.01 22.51,-28.81 27.1,-50.39 4.59,-21.58 6.88,-46.92 6.88,-76.03 0,-28.12 -3.56,-50.58 -10.69,-67.38 -7.13,-16.8 -20.56,-28.42 -40.28,-34.86 16.21,-3.33 27.59,-11.38 34.13,-24.17 6.54,-12.79 9.81,-29.35 9.81,-49.66 V 1638.8 h -101.66 v 201.86 c 0,15.04 -3.07,24.36 -9.23,27.98 -6.15,3.61 -16.06,5.42 -29.73,5.42 V 1638.8 h -104.3"
         style="fill:#161616;fill-opacity:1;fill-rule:nonzero;stroke:none"
         id="path48" />
      <path
         d="m 1011.23,477.59 c -23,0 -41.648,-18.641 -41.648,-41.649 0,-23 18.648,-41.652 41.648,-41.652 23.01,0 41.66,18.652 41.66,41.652 0,23.008 -18.65,41.649 -41.66,41.649"
         style="fill:#000000;fill-opacity:1;fill-rule:nonzero;stroke:none"
         id="path50" />
      <path
         d="m 1011.23,732.582 c -23,0 -41.648,-18.652 -41.648,-41.652 0,-23.008 18.648,-41.649 41.648,-41.649 23.01,0 41.66,18.641 41.66,41.649 0,23 -18.65,41.652 -41.66,41.652"
         style="fill:#000000;fill-opacity:1;fill-rule:nonzero;stroke:none"
         id="path52" />
      <path
         d="m 1011.23,963.691 c -23,0 -41.648,-18.652 -41.648,-41.652 0,-23 18.648,-41.648 41.648,-41.648 23.01,0 41.66,18.648 41.66,41.648 0,23 -18.65,41.652 -41.66,41.652"
         style="fill:#000000;fill-opacity:1;fill-rule:nonzero;stroke:none"
         id="path54" />
      <path
         d="m 689.211,394.289 c 23.004,0 41.652,18.652 41.652,41.652 0,23.008 -18.648,41.649 -41.652,41.649 -23.004,0 -41.652,-18.641 -41.652,-41.649 0,-23 18.648,-41.652 41.652,-41.652"
         style="fill:#000000;fill-opacity:1;fill-rule:nonzero;stroke:none"
         id="path56" />
      <path
         d="m 689.211,649.281 c 23.004,0 41.652,18.641 41.652,41.649 0,23 -18.648,41.652 -41.652,41.652 -23.004,0 -41.652,-18.652 -41.652,-41.652 0,-23.008 18.648,-41.649 41.652,-41.649"
         style="fill:#000000;fill-opacity:1;fill-rule:nonzero;stroke:none"
         id="path58" />
      <path
         d="m 689.211,880.391 c 23.004,0 41.652,18.648 41.652,41.648 0,23 -18.648,41.652 -41.652,41.652 -23.004,0 -41.652,-18.652 -41.652,-41.652 0,-23 18.648,-41.648 41.652,-41.648"
         style="fill:#000000;fill-opacity:1;fill-rule:nonzero;stroke:none"
         id="path60" />
      <path
         d="m 857.949,2018.39 c 32.574,0 58.981,26.41 58.981,58.98 0,32.57 -26.407,58.98 -58.981,58.98 -32.57,0 -58.976,-26.41 -58.976,-58.98 0,-32.57 26.406,-58.98 58.976,-58.98"
         style="fill:#000000;fill-opacity:1;fill-rule:nonzero;stroke:none"
         id="path62" />
      <path
         d="m 857.949,1887.32 c -32.57,0 -58.976,-26.4 -58.976,-58.98 0,-32.57 26.406,-58.97 58.976,-58.97 32.574,0 58.981,26.4 58.981,58.97 0,32.58 -26.407,58.98 -58.981,58.98"
         style="fill:#000000;fill-opacity:1;fill-rule:nonzero;stroke:none"
         id="path64" />
      <path
         d="m 598.922,1887.32 c -32.57,0 -58.977,-26.4 -58.977,-58.98 0,-32.57 26.407,-58.97 58.977,-58.97 32.574,0 58.98,26.4 58.98,58.97 0,32.58 -26.406,58.98 -58.98,58.98"
         style="fill:#000000;fill-opacity:1;fill-rule:nonzero;stroke:none"
         id="path66" />
      <path
         d="m 1098,1774.65 c 32.57,0 58.98,26.4 58.98,58.98 0,32.57 -26.41,58.98 -58.98,58.98 -32.57,0 -58.98,-26.41 -58.98,-58.98 0,-32.58 26.41,-58.98 58.98,-58.98"
         style="fill:#000000;fill-opacity:1;fill-rule:nonzero;stroke:none"
         id="path68" />
      <path
         d="m 857.949,1529.32 c 32.574,0 58.981,26.4 58.981,58.98 0,32.57 -26.407,58.98 -58.981,58.98 -32.57,0 -58.976,-26.41 -58.976,-58.98 0,-32.58 26.406,-58.98 58.976,-58.98"
         style="fill:#000000;fill-opacity:1;fill-rule:nonzero;stroke:none"
         id="path70" />
      <path
         d="M 1993,335.371 1937.63,851 h 100.78 l 28.42,-325.488 29,325.488 h 96.1 L 2219.47,525.512 2247.01,851 h 101.95 L 2292.71,335.371 H 2169.08 L 2143.29,583.52 2118.68,335.371 H 1993"
         style="fill:#161616;fill-opacity:1;fill-rule:nonzero;stroke:none"
         id="path72" />
      <path
         d="m 2515.36,880 v 87.301 h 104.89 V 880 Z m -16.4,-549.32 c -42.97,0 -74.61,12.062 -94.92,36.179 -20.32,24.133 -30.47,59.621 -30.47,106.5 V 851 h 100.19 V 477.461 c 0,-8.59 0.49,-16.852 1.47,-24.762 0.97,-7.91 3.22,-14.398 6.74,-19.48 3.51,-5.078 9.18,-7.61 16.99,-7.61 8.01,0 13.77,2.493 17.28,7.473 3.52,4.977 5.73,11.469 6.61,19.477 0.87,8.011 1.3,16.312 1.3,24.902 V 851 h 100.2 V 473.359 c 0,-46.879 -10.16,-82.367 -30.47,-106.5 -20.31,-24.117 -51.95,-36.179 -94.92,-36.179 z M 2373.57,880 v 87.301 h 104.88 V 880 h -104.88"
         style="fill:#161616;fill-opacity:1;fill-rule:nonzero;stroke:none"
         id="path74" />
      <path
         d="m 2768.78,659.98 h 24.9 c 14.26,0 21.39,15.532 21.39,46.579 0,20.121 -1.56,33.3 -4.69,39.55 -3.12,6.25 -8.98,9.383 -17.57,9.383 h -24.03 z M 2663.9,335.371 V 851 h 158.2 c 26.37,0 46.29,-6.012 59.77,-18.02 13.48,-12.011 22.52,-28.808 27.11,-50.39 4.59,-21.578 6.87,-46.93 6.87,-76.031 0,-28.118 -3.55,-50.579 -10.68,-67.379 -7.13,-16.801 -20.57,-28.418 -40.29,-34.86 16.21,-3.32 27.59,-11.379 34.14,-24.168 6.54,-12.8 9.8,-29.351 9.8,-49.66 V 335.371 H 2807.16 V 537.23 c 0,15.04 -3.06,24.36 -9.22,27.969 -6.15,3.621 -16.07,5.422 -29.74,5.422 v -235.25 h -104.3"
         style="fill:#161616;fill-opacity:1;fill-rule:nonzero;stroke:none"
         id="path76" />
      <path
         d="M 2949.84,335.371 V 851 h 206.25 V 750.512 H 3053.55 V 668.48 h 97.26 v -99.32 h -97.26 V 335.371 h -103.71"
         style="fill:#161616;fill-opacity:1;fill-rule:nonzero;stroke:none"
         id="path78" />
      <path
         d="M 3189.19,335.371 V 851 h 206.25 V 751.391 H 3294.08 V 650.898 h 97.26 V 553.93 h -97.26 V 435.859 h 108.1 V 335.371 h -212.99"
         style="fill:#161616;fill-opacity:1;fill-rule:nonzero;stroke:none"
         id="path80" />
      <path
         d="M 3436.17,335.371 V 851 h 103.12 V 423.262 h 106.06 v -87.891 h -209.18"
         style="fill:#161616;fill-opacity:1;fill-rule:nonzero;stroke:none"
         id="path82" />
      <path
         d="m 3779.52,659.98 h 24.91 c 14.25,0 21.38,15.532 21.38,46.579 0,20.121 -1.56,33.3 -4.68,39.55 -3.13,6.25 -8.99,9.383 -17.58,9.383 h -24.03 z M 3674.64,335.371 V 851 h 158.21 c 26.36,0 46.28,-6.012 59.76,-18.02 13.48,-12.011 22.52,-28.808 27.11,-50.39 4.59,-21.578 6.88,-46.93 6.88,-76.031 0,-28.118 -3.56,-50.579 -10.69,-67.379 -7.13,-16.801 -20.56,-28.418 -40.29,-34.86 16.21,-3.32 27.6,-11.379 34.14,-24.168 6.54,-12.8 9.8,-29.351 9.8,-49.66 V 335.371 H 3817.9 V 537.23 c 0,15.04 -3.06,24.36 -9.22,27.969 -6.15,3.621 -16.07,5.422 -29.74,5.422 v -235.25 h -104.3"
         style="fill:#161616;fill-opacity:1;fill-rule:nonzero;stroke:none"
         id="path84" />
      <path
         d="m 4079.82,330.68 c -42.97,0 -74.61,12.062 -94.92,36.179 -20.32,24.133 -30.47,59.621 -30.47,106.5 V 851 h 100.19 V 477.461 c 0,-8.59 0.49,-16.852 1.47,-24.762 0.97,-7.91 3.22,-14.398 6.74,-19.48 3.51,-5.078 9.18,-7.61 16.99,-7.61 8.01,0 13.77,2.493 17.28,7.473 3.52,4.977 5.73,11.469 6.6,19.477 0.88,8.011 1.31,16.312 1.31,24.902 V 851 h 100.2 V 473.359 c 0,-46.879 -10.16,-82.367 -30.47,-106.5 -20.31,-24.117 -51.95,-36.179 -94.92,-36.179"
         style="fill:#161616;fill-opacity:1;fill-rule:nonzero;stroke:none"
         id="path86" />
      <path
         d="M 4244.76,335.371 V 851 h 106.05 l 47.46,-246.98 V 851 h 99.61 V 335.371 H 4397.1 L 4345.54,593.18 V 335.371 h -100.78"
         style="fill:#161616;fill-opacity:1;fill-rule:nonzero;stroke:none"
         id="path88" />
      <path
         d="m 4647.3,426.48 h 17.87 c 18.94,0 28.42,9.18 28.42,27.54 v 266.019 c 0,17.191 -2.29,28.27 -6.88,33.25 -4.59,4.981 -13.92,7.473 -27.99,7.473 H 4647.3 Z M 4543.59,335.371 V 851 h 141.79 c 37.11,0 65.04,-10.309 83.79,-30.91 18.75,-20.61 28.13,-50.731 28.13,-90.379 v -241.41 c 0,-48.832 -8.54,-86.52 -25.63,-113.09 -17.09,-26.559 -47.03,-39.84 -89.8,-39.84 h -138.28"
         style="fill:#161616;fill-opacity:1;fill-rule:nonzero;stroke:none"
         id="path90" />
      <path
         d="M 4839.49,335.371 V 851 h 206.25 V 751.391 H 4944.37 V 650.898 h 97.26 V 553.93 h -97.26 V 435.859 h 108.1 V 335.371 h -212.98"
         style="fill:#161616;fill-opacity:1;fill-rule:nonzero;stroke:none"
         id="path92" />
      <path
         d="m 2083.79,1116.48 h 17.87 c 18.95,0 28.42,9.18 28.42,27.54 v 266.02 c 0,17.19 -2.29,28.27 -6.88,33.25 -4.59,4.98 -13.92,7.47 -27.98,7.47 h -11.43 z m -103.71,-91.11 V 1541 h 141.8 c 37.11,0 65.04,-10.31 83.79,-30.91 18.75,-20.61 28.12,-50.73 28.12,-90.38 V 1178.3 c 0,-48.83 -8.54,-86.52 -25.63,-113.09 -17.09,-26.56 -47.02,-39.84 -89.8,-39.84 h -138.28"
         style="fill:#161616;fill-opacity:1;fill-rule:nonzero;stroke:none"
         id="path94" />
      <path
         d="M 2275.98,1025.37 V 1541 h 206.25 v -99.61 H 2380.86 V 1340.9 h 97.27 v -96.97 h -97.27 v -118.07 h 108.11 v -100.49 h -212.99"
         style="fill:#161616;fill-opacity:1;fill-rule:nonzero;stroke:none"
         id="path96" />
      <path
         d="m 2627.84,1349.98 h 24.9 c 14.26,0 21.38,15.53 21.38,46.58 0,20.12 -1.56,33.3 -4.68,39.55 -3.13,6.25 -8.99,9.38 -17.58,9.38 h -24.02 z M 2522.95,1025.37 V 1541 h 158.21 c 26.36,0 46.28,-6.01 59.76,-18.02 13.48,-12.01 22.51,-28.81 27.1,-50.39 4.59,-21.58 6.89,-46.93 6.89,-76.03 0,-28.12 -3.57,-50.58 -10.7,-67.38 -7.13,-16.8 -20.55,-28.42 -40.28,-34.86 16.21,-3.32 27.59,-11.38 34.13,-24.17 6.54,-12.8 9.81,-29.35 9.81,-49.66 v -195.12 h -101.66 v 201.86 c 0,15.04 -3.07,24.36 -9.22,27.97 -6.16,3.62 -16.07,5.42 -29.74,5.42 v -235.25 h -104.3"
         style="fill:#161616;fill-opacity:1;fill-rule:nonzero;stroke:none"
         id="path98" />
    </g>
  </g>
</svg>
